Coordinates
version=1
nRows=9
nColumns=63
inDegrees=yes

Units are S.I. units (second, meters, Newtons, ...)
If the header above contains a line with 'inDegrees', this indicates whether rotational values are in degrees (yes) or radians (no).

endheader
time	pelvis_tilt	pelvis_list	pelvis_rotation	pelvis_tx	pelvis_ty	pelvis_tz	hip_flexion_r	hip_adduction_r	hip_rotation_r	knee_angle_r	knee_angle_r_beta	ankle_angle_r	subtalar_angle_r	mtp_angle_r	hip_flexion_l	hip_adduction_l	hip_rotation_l	knee_angle_l	knee_angle_l_beta	ankle_angle_l	subtalar_angle_l	mtp_angle_l	L5_S1_Flex_Ext	L5_S1_Lat_Bending	L5_S1_axial_rotation	L4_L5_Flex_Ext	L4_L5_Lat_Bending	L4_L5_axial_rotation	L3_L4_Flex_Ext	L3_L4_Lat_Bending	L3_L4_axial_rotation	L2_L3_Flex_Ext	L2_L3_Lat_Bending	L2_L3_axial_rotation	L1_L2_Flex_Ext	L1_L2_Lat_Bending	L1_L2_axial_rotation	L1_T12_Flex_Ext	L1_T12_Lat_Bending	L1_T12_axial_rotation	Abs_r3	Abs_r2	Abs_r1	Abs_t1	Abs_t2	neck_flexion	neck_bending	neck_rotation	arm_flex_r	arm_add_r	arm_rot_r	elbow_flex_r	pro_sup_r	wrist_flex_r	wrist_dev_r	arm_flex_l	arm_add_l	arm_rot_l	elbow_flex_l	pro_sup_l	wrist_flex_l	wrist_dev_l
3.050847	-3.365785	-6.099712	76.239015	0.307721	0.922234	0.600612	6.900733	-0.287896	15.411343	7.895771	0.137807	31.376442	-6.288505	0.000000	4.507747	1.449200	-2.727570	5.550126	0.096868	32.427682	-11.262321	0.000000	-0.069044	-0.545143	0.651372	-0.128223	-0.725041	0.692082	-0.113433	-1.325461	0.692082	-0.078911	-1.325461	0.569950	-0.064115	-1.111656	0.529240	-0.039452	-0.844427	0.488529	-0.493178	-6.166770	3.622734	0.000000	0.000000	15.076918	6.699647	-8.367182	31.732113	0.079409	24.125148	116.840597	86.179302	5.069815	15.256522	1.277534	-15.672661	47.253387	25.622057	81.097174	-10.956465	-6.798060
3.067797	-3.196875	-5.410474	76.344667	0.307230	0.923168	0.600429	6.499252	-0.338389	14.048869	8.646485	0.150910	32.157589	-4.529434	0.000000	3.999799	1.452315	-3.285781	5.982304	0.104411	32.935218	-10.451835	0.000000	-0.076265	-0.535681	0.710819	-0.141632	-0.712455	0.755245	-0.125296	-1.302454	0.755245	-0.087163	-1.302454	0.621967	-0.070820	-1.092360	0.577540	-0.043578	-0.829769	0.533114	-0.544754	-6.059727	3.953362	0.000000	0.000000	15.234507	6.147282	-9.739369	31.329013	-1.226590	24.086184	112.287017	85.969088	7.927630	16.737843	1.959151	-15.704082	49.517999	25.348145	78.942709	-10.439271	-6.713059
3.084746	-3.071166	-4.719673	76.425571	0.306810	0.924042	0.600209	6.093929	-0.444613	12.663480	9.375226	0.163629	32.911684	-2.678614	0.000000	3.476433	1.485849	-3.979217	6.395224	0.111618	33.427104	-9.513828	0.000000	-0.081603	-0.536633	0.803539	-0.151546	-0.713722	0.853760	-0.134066	-1.304770	0.853760	-0.093264	-1.304770	0.703096	-0.075777	-1.094303	0.652875	-0.046628	-0.831245	0.602654	-0.582885	-6.070504	4.469041	0.000000	0.000000	15.501791	5.519321	-11.413781	30.732684	-2.640942	24.365776	107.481844	85.900503	10.538720	18.251982	2.675305	-15.812654	51.395400	25.104532	76.995581	-9.894613	-6.525644
3.101695	-2.971976	-4.036740	76.501235	0.306408	0.924864	0.599956	5.678051	-0.587374	11.284976	10.058253	0.175550	33.606960	-0.813953	0.000000	2.939352	1.540328	-4.669443	6.777736	0.118294	33.853268	-8.628492	0.000000	-0.085707	-0.545325	0.930310	-0.159167	-0.725282	0.988454	-0.140809	-1.325903	0.988454	-0.097955	-1.325903	0.814021	-0.079588	-1.112026	0.755877	-0.048973	-0.844708	0.697732	-0.612200	-6.168824	5.174105	0.000000	0.000000	15.853002	4.825515	-13.326444	30.012758	-4.126457	25.036523	102.399270	86.047155	12.594231	19.601721	3.610639	-15.932644	54.093740	24.839622	74.013678	-9.318294	-6.515991
3.118644	-2.899354	-3.378982	76.583494	0.305984	0.925610	0.599675	5.260850	-0.762456	9.928694	10.679855	0.186399	34.233405	1.026399	0.000000	2.406511	1.609941	-5.413721	7.132530	0.124486	34.235619	-7.707662	0.000000	-0.087230	-0.560358	1.083708	-0.161996	-0.745276	1.151439	-0.143311	-1.362455	1.151439	-0.099696	-1.362455	0.948244	-0.081002	-1.142682	0.880512	-0.049843	-0.867995	0.812781	-0.623078	-6.338883	6.027256	0.000000	0.000000	16.246409	4.081574	-15.374160	29.199360	-5.538289	25.868097	96.967709	86.847145	14.192664	20.603149	4.686286	-16.039001	57.227335	24.550104	70.287441	-8.689899	-6.582898
3.135593	-2.845118	-2.763501	76.685758	0.305501	0.926260	0.599361	4.843656	-0.952898	8.645863	11.214140	0.195724	34.768823	2.756044	0.000000	1.888755	1.686082	-6.185067	7.444745	0.129935	34.573224	-6.767311	0.000000	-0.083802	-0.579954	1.253201	-0.155629	-0.771338	1.331526	-0.137678	-1.410099	1.331526	-0.095777	-1.410099	1.096551	-0.077818	-1.182641	1.018226	-0.047884	-0.898348	0.939901	-0.598589	-6.560551	6.969926	0.000000	0.000000	16.633844	3.327199	-17.491232	28.351653	-6.780467	26.771692	91.176725	88.084314	15.385556	21.265003	5.844514	-16.102380	60.640857	24.236298	65.880616	-8.002238	-6.679526
3.152542	-2.794727	-2.179786	76.814872	0.304911	0.926814	0.599013	4.404493	-1.143349	7.514518	11.652402	0.203373	35.189300	4.254148	0.000000	1.362740	1.765547	-6.868255	7.690459	0.134224	34.836501	-5.944348	0.000000	-0.076963	-0.600523	1.427195	-0.142927	-0.798695	1.516395	-0.126442	-1.460111	1.516395	-0.087961	-1.460111	1.248796	-0.071468	-1.224586	1.159596	-0.043976	-0.930210	1.070397	-0.549737	-6.793233	7.937633	0.000000	0.000000	16.959139	2.575769	-19.530417	27.536662	-7.802179	27.822097	85.017621	89.289372	16.020131	21.359471	7.055080	-16.088763	64.340472	23.884873	60.738236	-7.298051	-6.761651
3.169492	-2.742710	-1.624269	76.994448	0.304168	0.927266	0.598619	3.928921	-1.327311	6.574355	11.986146	0.209198	35.474953	5.424689	0.000000	0.823007	1.850961	-7.357196	7.862974	0.137235	35.015047	-5.333103	0.000000	-0.066909	-0.620407	1.591153	-0.124257	-0.825141	1.690600	-0.109925	-1.508457	1.690600	-0.076471	-1.508457	1.392259	-0.062132	-1.265133	1.292812	-0.038232	-0.961010	1.193365	-0.477927	-7.018164	8.849515	0.000000	0.000000	17.182018	1.865386	-21.380820	26.787585	-8.570072	29.129406	78.562671	90.065213	16.146332	20.834366	8.275217	-15.989075	68.230395	23.510952	54.881800	-6.589411	-6.801909
3.186441	-2.681852	-1.081706	77.225499	0.303266	0.927629	0.598176	3.396744	-1.493301	5.887897	12.218082	0.213246	35.621786	6.164734	0.000000	0.252593	1.940038	-7.599125	7.962059	0.138964	35.108139	-4.977187	0.000000	-0.056536	-0.637422	1.735652	-0.104993	-0.847771	1.844131	-0.092883	-1.549828	1.844131	-0.064615	-1.549828	1.518696	-0.052499	-1.299831	1.410218	-0.032305	-0.987367	1.301739	-0.403832	-7.210647	9.653178	0.000000	0.000000	17.308016	1.221456	-22.918271	26.164624	-9.072347	31.159945	71.907412	89.833293	15.726148	19.629098	9.483122	-15.815665	72.214333	23.161211	48.288355	-5.882435	-6.804211
